<?xml version="1.0" encoding="utf-8"?>
<!-- Generator: Adobe Illustrator 26.3.1, SVG Export Plug-In . SVG Version: 6.00 Build 0)  -->
<svg version="1.1" id="Layer_1" xmlns="http://www.w3.org/2000/svg" xmlns:xlink="http://www.w3.org/1999/xlink" x="0px" y="0px"
	 viewBox="0 0 507.4 507.4" style="enable-background:new 0 0 507.4 507.4;" xml:space="preserve">
<style type="text/css">
	.st0{fill:#E8071D;stroke:#000000;stroke-width:8;stroke-miterlimit:10;}
	.st1{fill:#F4EFEF;stroke:#000000;stroke-width:8;stroke-miterlimit:10;}
</style>
<ellipse transform="matrix(0.7071 -0.7071 0.7071 0.7071 -105.0862 253.7003)" class="st0" cx="253.7" cy="253.7" rx="244.6" ry="244.6"/>
<path class="st1" d="M287.6,253.7l67.9-67.9c9.4-9.4,9.4-24.6,0-33.9c-9.4-9.4-24.6-9.4-33.9,0l-67.9,67.9l-67.9-67.9
	c-9.4-9.4-24.6-9.4-33.9,0c-9.4,9.4-9.4,24.6,0,33.9l67.9,67.9l-67.9,67.9c-9.4,9.4-9.4,24.6,0,33.9c4.7,4.7,10.8,7,17,7
	c6.1,0,12.3-2.3,17-7l67.9-67.9l67.9,67.9c4.7,4.7,10.8,7,17,7c6.1,0,12.3-2.3,17-7c9.4-9.4,9.4-24.6,0-33.9L287.6,253.7z"/>
</svg>
