<?xml version="1.0" encoding="utf-8"?>
<!-- Generator: Adobe Illustrator 26.3.1, SVG Export Plug-In . SVG Version: 6.00 Build 0)  -->
<svg version="1.1" id="Layer_1" xmlns="http://www.w3.org/2000/svg" xmlns:xlink="http://www.w3.org/1999/xlink" x="0px" y="0px"
	 viewBox="0 0 507.4 507.4" style="enable-background:new 0 0 507.4 507.4;" xml:space="preserve">
<style type="text/css">
	.st0{fill:#0EAF34;stroke:#000000;stroke-width:7.9999;stroke-miterlimit:9.9999;}
	.st1{fill:#F4EFEF;stroke:#000000;stroke-width:8;stroke-miterlimit:10;}
</style>
<ellipse class="st0" cx="253.7" cy="253.7" rx="240.3" ry="240.3"/>
<path class="st1" d="M377.7,202.6L239.4,340.9c-4.8,4.8-11.2,7.5-18.1,7.5c-6.8,0-13.2-2.7-18.1-7.5l-73.6-73.6
	c-10-10-10-26.2,0-36.1c4.8-4.8,11.2-7.5,18.1-7.5c6.8,0,13.2,2.7,18.1,7.5l55.6,55.6l120.3-120.3c4.8-4.8,11.2-7.5,18.1-7.5
	c6.8,0,13.2,2.7,18.1,7.5C387.7,176.4,387.7,192.6,377.7,202.6z"/>
</svg>
