<?xml version="1.0" encoding="utf-8"?>
<!-- Generator: Adobe Illustrator 26.3.1, SVG Export Plug-In . SVG Version: 6.00 Build 0)  -->
<svg version="1.1" id="Layer_1" xmlns="http://www.w3.org/2000/svg" xmlns:xlink="http://www.w3.org/1999/xlink" x="0px" y="0px"
	 viewBox="0 0 507.4 507.4" style="enable-background:new 0 0 507.4 507.4;" xml:space="preserve">
<style type="text/css">
	.st0{fill:#FFC107;}
	.st1{fill:#F4EFEF;}
</style>
<path class="st0" d="M329.3,129.1l13.6,22l150.8,242.4c22.4,36,6,65.2-36.8,65.2H50.5c-42.4,0-59.2-29.6-36.8-65.6L212.5,72.3
	c22.4-36,58.8-36,81.2,0L329.3,129.1z"/>
<g>
	<path class="st1" d="M253.7,343.5c-10.8,0-20-8.8-20-20V180.3c0-10.8,9.2-20,20-20c10.8,0,20,8.8,20,20v143.2
		C273.7,334.3,264.5,343.5,253.7,343.5z"/>
	<path class="st1" d="M253.3,407.1c-5.2,0-10.4-2-14-6c-3.6-3.6-6-8.8-6-14s2-10.4,6-14c3.6-3.6,8.8-6,14-6s10.4,2,14,6
		c3.6,3.6,6,8.8,6,14s-2,10.4-6,14C263.7,404.7,258.5,407.1,253.3,407.1z"/>
</g>
<path d="M456.9,465.5H50.5c-22,0-38.4-7.6-46-21.6s-5.6-32.8,6-51.2L209.3,71.1c11.6-18.8,27.2-29.2,44.4-29.2l0,0
	c16.8,0,32.4,10,43.6,28.4l35.2,56.4l0,0l13.6,22l150.8,243.6c11.6,18.4,13.6,37.2,6,51.2C495.3,457.9,478.9,465.5,456.9,465.5z
	 M253.3,49.9L253.3,49.9c-14,0-27.2,8.8-37.6,25.2L16.9,396.7c-10,16-12,31.6-5.6,43.2s20.4,17.6,39.2,17.6h406.4
	c18.8,0,32.8-6.4,39.2-17.6c6.4-11.2,4.4-27.2-5.6-43.2L339.7,153.1l-13.6-22l-35.2-56.4C280.5,58.7,267.3,49.9,253.3,49.9z"/>
<path d="M249.7,347.5c-13.2,0-24-10.8-24-24V180.3c0-13.2,10.8-24,24-24c13.2,0,24,10.8,24,24v143.2
	C273.7,336.7,262.9,347.5,249.7,347.5z M249.7,164.3c-8.8,0-16,7.2-16,16v143.2c0,8.8,7.2,16,16,16c8.8,0,16-7.2,16-16V180.3
	C265.7,171.5,258.5,164.3,249.7,164.3z"/>
<path d="M249.7,411.1L249.7,411.1c-6.4,0-12.4-2.4-16.8-6.8c-4.4-4.4-6.8-10.8-6.8-16.8c0-6.4,2.4-12.4,6.8-16.8
	c4.4-4.4,10.8-7.2,16.8-7.2c6.4,0,12.4,2.4,16.8,7.2c4.4,4.4,7.2,10.4,7.2,16.8s-2.4,12.4-7.2,16.8
	C262.1,408.3,256.1,411.1,249.7,411.1z M249.7,371.1c-4,0-8.4,1.6-11.2,4.8c-2.8,2.8-4.8,7.2-4.8,11.2c0,4.4,1.6,8.4,4.8,11.2
	c2.8,2.8,7.2,4.8,11.2,4.8s8.4-1.6,11.2-4.8c2.8-2.8,4.8-7.2,4.8-11.2s-1.6-8.4-4.8-11.2C258.1,372.7,253.7,371.1,249.7,371.1z"/>
</svg>
