<?xml version="1.0" encoding="utf-8"?>
<!-- Generator: Adobe Illustrator 26.3.1, SVG Export Plug-In . SVG Version: 6.00 Build 0)  -->
<svg version="1.1" id="Layer_1" xmlns="http://www.w3.org/2000/svg" xmlns:xlink="http://www.w3.org/1999/xlink" x="0px" y="0px"
	 viewBox="0 0 410.8 345" style="enable-background:new 0 0 410.8 345;" xml:space="preserve">
<style type="text/css">
	.st0{fill:none;stroke:#000000;stroke-width:6;stroke-linecap:round;stroke-linejoin:round;}
</style>
<path class="st0" d="M85.7,127.3C85.6,61.1,139.2,7.4,205.4,7.3c0.3,0,0.6,0,0.9,0c66,0.5,118.8,55.3,118.8,121.5v11.8
	c0,59.7,12.5,94.3,23.5,113.3c3.7,6.4,1.6,14.5-4.8,18.2c-2,1.2-4.3,1.8-6.7,1.8H73.7c-7.4,0-13.3-6-13.3-13.4
	c0-2.4,0.6-4.7,1.8-6.7c11-18.9,23.5-53.6,23.5-113.3L85.7,127.3z M152,274v13.3c0,29.5,23.9,53.3,53.3,53.3s53.3-23.9,53.3-53.3
	V274"/>
</svg>
