<?xml version="1.0" encoding="utf-8"?>
<!-- Generator: Adobe Illustrator 26.3.1, SVG Export Plug-In . SVG Version: 6.00 Build 0)  -->
<svg version="1.1" id="Layer_1" xmlns="http://www.w3.org/2000/svg" xmlns:xlink="http://www.w3.org/1999/xlink" x="0px" y="0px"
	 viewBox="0 0 290.6 290.6" style="enable-background:new 0 0 290.6 290.6;" xml:space="preserve">
<style type="text/css">
	.st0{fill:#444444;}
	.st1{fill:#FFC107;}
</style>
<g>
	<g>
		<g>
			<path class="st0" d="M276.6,51.6h-89.1v-9.4c0-23.3-18.9-42.2-42.2-42.2s-42.2,18.9-42.2,42.2c0,3.2,0.4,6.4,1.1,9.4H14.1
				C6.3,51.6,0,57.9,0,65.6v178.1c0,7.8,6.3,14.1,14.1,14.1h89.1v23.4H70.3v9.4h32.8h84.4h32.8v-9.4h-32.8v-23.4h89.1
				c7.8,0,14.1-6.3,14.1-14.1V65.6C290.6,57.9,284.3,51.6,276.6,51.6z M178.1,281.2h-65.6v-23.4h65.6V281.2z M281.2,243.8
				c0,2.6-2.1,4.7-4.7,4.7h-89.1h-42.2h-42.2H14.1c-2.6,0-4.7-2.1-4.7-4.7V225h135.9h0h135.9V243.8z M281.3,215.6H9.4v-150
				c0-2.6,2.1-4.7,4.7-4.7h93.5c6.9,13.9,21.2,23.4,37.7,23.4h14.1V75h-14.1c-18.1,0-32.8-14.7-32.8-32.8s14.7-32.8,32.8-32.8
				s32.8,14.7,32.8,32.8v11.7c0,3.9-3.2,7-7,7s-7-3.2-7-7V42.2c0-10.3-8.4-18.8-18.8-18.8s-18.8,8.4-18.8,18.8s8.4,18.8,18.8,18.8
				c3.6,0,7-1,9.9-2.8c1.9,7,8.3,12.2,15.9,12.2c6.5,0,12.1-3.9,14.8-9.4h90.7c2.6,0,4.7,2.1,4.7,4.7L281.3,215.6L281.3,215.6z
				 M154.7,42.2c0,5.2-4.2,9.4-9.4,9.4s-9.4-4.2-9.4-9.4s4.2-9.4,9.4-9.4S154.7,37,154.7,42.2z"/>
			<path class="st0" d="M157,236.7c0-6.5-5.3-11.7-11.7-11.7s-11.7,5.3-11.7,11.7c0,6.5,5.3,11.7,11.7,11.7
				C151.8,248.4,157,243.2,157,236.7z M145.3,239.1c-1.3,0-2.3-1.1-2.3-2.3s1.1-2.3,2.3-2.3s2.3,1.1,2.3,2.3
				S146.6,239.1,145.3,239.1z"/>
			<rect x="70.3" y="93.8" class="st0" width="150" height="103.1"/>
			<polygon class="st1" points="85.7,187.5 131.8,137.5 145.2,146.1 159.1,137.8 204.9,187.5 			"/>
			<polygon class="st1" points="210.9,180.2 167.3,132.9 210.9,106.7 			"/>
			<polygon class="st1" points="198.7,103.1 145.4,135.1 95.6,103.1 			"/>
			<polygon class="st1" points="79.7,104 123.8,132.4 79.7,180.2 			"/>
		</g>
	</g>
</g>
</svg>
