<?xml version="1.0" encoding="utf-8"?>
<!-- Generator: Adobe Illustrator 26.3.1, SVG Export Plug-In . SVG Version: 6.00 Build 0)  -->
<svg version="1.1" id="Capa_1" xmlns="http://www.w3.org/2000/svg" xmlns:xlink="http://www.w3.org/1999/xlink" x="0px" y="0px"
	 viewBox="0 0 512 512" style="enable-background:new 0 0 512 512;" xml:space="preserve">
<style type="text/css">
	.st0{fill:#5252BA;stroke:#5252BA;stroke-width:2;stroke-linecap:round;stroke-linejoin:round;stroke-miterlimit:10;}
	.st1{fill:#8A8AFF;stroke:#8A8AFF;stroke-width:2;stroke-linecap:round;stroke-linejoin:round;stroke-miterlimit:10;}
	.st2{fill:#3AACE6;}
	.st3{fill:#FFD100;}
	.st4{fill:#BDDEFF;}
	.st5{fill:#FF4F19;}
	.st6{fill:#FF9500;}
</style>
<g>
	<g>
		<g>
			<path class="st0" d="M299,432H45c-0.6,0-1-0.4-1-1V81c0-0.6,0.4-1,1-1h254c0.6,0,1,0.4,1,1v350C300,431.6,299.6,432,299,432z"/>
		</g>
	</g>
	<g>
		<g>
			<rect x="116" y="24" class="st0" width="88" height="32"/>
		</g>
	</g>
	<g>
		<g>
			<rect x="140" y="440" class="st0" width="64" height="64"/>
		</g>
	</g>
	<g>
		<g>
			<path class="st1" d="M276,0H68C45.9,0,28,17.9,28,40v432c0,22.1,17.9,40,40,40h208c22.1,0,40-17.9,40-40V40
				C316,17.9,298.1,0,276,0z M156,32h32c4.4,0,8,3.6,8,8s-3.6,8-8,8h-32c-4.4,0-8-3.6-8-8S151.6,32,156,32z M126.3,34.3
				c2.9-2.9,8.4-3,11.4,0c1.4,1.5,2.3,3.5,2.3,5.7c0,2.2-0.9,4.2-2.3,5.7c-1.5,1.4-3.5,2.3-5.7,2.3c-2.2,0-4.2-0.9-5.7-2.3
				c-1.4-1.5-2.3-3.5-2.3-5.7C124,37.8,124.9,35.8,126.3,34.3z M172,496c-13.2,0-24-10.8-24-24s10.8-24,24-24s24,10.8,24,24
				S185.2,496,172,496z M292,432H52c-4.4,0-8-3.6-8-8V88c0-4.4,3.6-8,8-8h240c4.4,0,8,3.6,8,8v336C300,428.4,296.4,432,292,432z"/>
		</g>
	</g>
	<g>
		<path class="st2" d="M452,408H100c-17.7,0-32-14.3-32-32V136c0-17.7,14.3-32,32-32h352c17.7,0,32,14.3,32,32v240
			C484,393.7,469.7,408,452,408z"/>
	</g>
	<g>
		<path class="st3" d="M212,232h-80c-8.8,0-16-7.2-16-16v-48c0-8.8,7.2-16,16-16h80c8.8,0,16,7.2,16,16v48
			C228,224.8,220.8,232,212,232z"/>
	</g>
	<g>
		<path class="st4" d="M156,320h-24c-8.8,0-16-7.2-16-16l0,0c0-8.8,7.2-16,16-16h24c8.8,0,16,7.2,16,16l0,0
			C172,312.8,164.8,320,156,320z"/>
	</g>
	<g>
		<path class="st4" d="M244,320h-24c-8.8,0-16-7.2-16-16l0,0c0-8.8,7.2-16,16-16h24c8.8,0,16,7.2,16,16l0,0
			C260,312.8,252.8,320,244,320z"/>
	</g>
	<g>
		<path class="st4" d="M332,320h-24c-8.8,0-16-7.2-16-16l0,0c0-8.8,7.2-16,16-16h24c8.8,0,16,7.2,16,16l0,0
			C348,312.8,340.8,320,332,320z"/>
	</g>
	<g>
		<path class="st4" d="M420,320h-24c-8.8,0-16-7.2-16-16l0,0c0-8.8,7.2-16,16-16h24c8.8,0,16,7.2,16,16l0,0
			C436,312.8,428.8,320,420,320z"/>
	</g>
	<g>
		<g>
			<path class="st4" d="M252.8,368H123.2c-4,0-7.2-3.6-7.2-8s3.2-8,7.2-8h129.6c4,0,7.2,3.6,7.2,8S256.8,368,252.8,368z"/>
		</g>
	</g>
	<g>
		<g>
			<path class="st4" d="M340,368h-56c-4.4,0-8-3.6-8-8s3.6-8,8-8h56c4.4,0,8,3.6,8,8S344.4,368,340,368z"/>
		</g>
	</g>
	<g>
		<path class="st5" d="M372,216c-7.3,9.7-18.9,16-32,16c-22.1,0-40-17.9-40-40s17.9-40,40-40c13.1,0,24.7,6.3,32,16"/>
	</g>
	<g>
		<circle class="st3" cx="396" cy="192" r="40"/>
	</g>
	<g>
		<polygon class="st6" points="156,184 156,152 140,152 140,232 156,232 156,200 228,200 228,184 		"/>
	</g>
</g>
</svg>
