<?xml version="1.0" standalone="no"?>
<!DOCTYPE svg PUBLIC "-//W3C//DTD SVG 20010904//EN"
 "http://www.w3.org/TR/2001/REC-SVG-20010904/DTD/svg10.dtd">
<svg version="1.0" xmlns="http://www.w3.org/2000/svg"
 width="273.000000pt" height="273.000000pt" viewBox="0 0 273.000000 273.000000"
 preserveAspectRatio="xMidYMid meet">
<metadata>
Created by potrace 1.14, written by Peter Selinger 2001-2017
</metadata>
<g transform="translate(0.000000,273.000000) scale(0.100000,-0.100000)"
fill="#000000" stroke="none">
<path d="M1245 2700 c-320 -83 -595 -280 -782 -561 -61 -92 -67 -97 -106 -103
-94 -14 -160 -81 -171 -173 -6 -47 15 -117 44 -148 19 -20 19 -22 1 -110 -22
-105 -27 -306 -11 -397 30 -170 85 -297 183 -426 68 -88 127 -143 239 -218
215 -143 370 -197 573 -197 145 -1 214 15 340 78 109 54 198 131 264 229 61
91 75 117 100 196 55 176 43 340 -37 500 -67 135 -162 210 -264 210 -31 0 -41
7 -78 55 -24 31 -40 58 -37 61 11 11 154 4 194 -10 109 -39 209 -114 277 -210
222 -310 209 -719 -28 -951 -50 -50 -139 -107 -226 -148 -98 -46 -126 -68
-154 -124 -35 -70 -8 -189 54 -233 24 -17 44 -20 132 -20 100 0 106 1 178 38
217 109 390 274 486 464 42 83 90 225 99 294 4 27 9 60 11 74 6 35 5 229 -1
265 -27 154 -61 268 -114 380 -58 124 -124 217 -227 320 -216 217 -492 304
-780 245 -103 -21 -221 -62 -281 -97 l-42 -24 -58 17 c-32 10 -59 19 -61 20
-8 5 38 49 103 99 86 66 222 131 318 152 73 15 202 20 267 8 56 -10 153 -36
173 -47 28 -14 127 -11 167 6 116 48 173 169 135 289 -31 98 -105 149 -285
197 -73 20 -114 24 -285 26 -192 3 -204 2 -310 -26z m-514 -1087 c-12 -20 -14
-14 -5 12 4 9 9 14 11 11 3 -2 0 -13 -6 -23z m469 -190 c23 -27 51 -66 62 -87
64 -125 66 -281 4 -353 -19 -22 -30 -26 -66 -25 -114 5 -184 87 -184 217 0 38
4 86 8 105 9 43 49 134 79 177 26 38 37 34 97 -34z"/>
</g>
</svg>
