<?xml version="1.0" encoding="utf-8"?>
<!-- Generator: Adobe Illustrator 26.0.0, SVG Export Plug-In . SVG Version: 6.00 Build 0)  -->
<svg version="1.1" id="Capa_1" xmlns="http://www.w3.org/2000/svg" xmlns:xlink="http://www.w3.org/1999/xlink" x="0px" y="0px"
	 viewBox="0 0 450 450" style="enable-background:new 0 0 450 450;" xml:space="preserve">
<style type="text/css">
	.st0{fill:none;stroke:#000000;stroke-width:22;stroke-linecap:round;stroke-linejoin:round;}
</style>
<g>
	<g>
		<path d="M212.4,231.4c0.4,0,0.9,0,1.4,0c0.2,0,0.4,0,0.5,0c0.3,0,0.6,0,0.9,0c25.7-0.4,46.5-9.5,61.8-26.8
			c33.8-38.1,28.2-103.3,27.5-109.5c-2.2-46.7-24.3-69.1-42.5-79.6c-13.6-7.8-29.5-12-47.2-12.4h-0.6c-0.1,0-0.3,0-0.4,0h-0.5
			c-9.7,0-28.9,1.6-47.2,12c-18.4,10.4-40.9,32.8-43.1,79.9c-0.6,6.2-6.2,71.5,27.5,109.5C165.9,221.9,186.7,230.9,212.4,231.4z
			 M146.5,97.2c0-0.3,0.1-0.5,0.1-0.7c2.9-62.9,47.5-69.6,66.7-69.6h0.4c0.2,0,0.4,0,0.7,0c23.7,0.5,63.9,10.2,66.7,69.6
			c0,0.3,0,0.5,0.1,0.7c0.1,0.6,6.2,60.3-21.7,91.7c-11.1,12.5-25.8,18.6-45.2,18.8c-0.2,0-0.3,0-0.4,0l0,0c-0.2,0-0.3,0-0.4,0
			c-19.3-0.2-34.1-6.3-45.1-18.8C140.5,157.7,146.4,97.8,146.5,97.2z"/>
		<path d="M214,403.1c-43.4,1.5-67.7-4.3-103.6-15c-12.4-3.7-30.6-7.4-51.1-21c-1.4-7-2-19.2-1.8-27.1c0-0.7,0.1-1.4,0.1-2.2
			c0.6-20,2.9-41.8,23.3-49.1c43.7-11.2,78.6-35.6,80.1-36.6c5.4-3.8,6.7-11.1,2.9-16.5c-3.8-5.4-11.1-6.7-16.5-2.9
			c-0.4,0.3-33.1,23.1-72.8,33.2c-0.4,0.1-0.6,0.2-0.9,0.3c-38.1,13.1-39.2,53.7-39.7,71c0,0.8,0,1.5-0.1,2.2c0,0.1,0,0.2,0,0.3
			c-0.1,4.6-0.2,28,4.5,39.7c0.9,2.3,2.5,4.2,4.6,5.5c71.7,44.8,171.2,41.9,171.2,41.9c4.5-0.2,11.4-0.5,20-1.2
			c-8.7-11.8-12.5-16.2-13.9-17.2c-0.2-0.1-1.5-1-2.9-2.4c-0.7-0.7-1.2-1.3-1.6-1.8C215.2,403.9,214.8,403.1,214,403.1z"/>
		<path d="M353.3,265.9"/>
	</g>
</g>
<g>
	<g>
		<path d="M302.1,446.7c-65.5,0-117.5-52-117.5-117.5s52-117.5,117.5-117.5s117.5,52,117.5,117.5S367.6,446.7,302.1,446.7z
			 M302.1,235.5c-52.5,0-93.7,41.2-93.7,93.7c0,52.5,41.2,93.7,93.7,93.7s93.7-41.2,93.7-93.7S354.6,235.5,302.1,235.5z"/>
	</g>
</g>
<g>
	<path class="st0" d="M302.1,276.9v104.4"/>
	<path class="st0" d="M354.3,329.2H249.9"/>
</g>
</svg>
