<?xml version="1.0" encoding="iso-8859-1"?>
<!-- Generator: Adobe Illustrator 19.0.0, SVG Export Plug-In . SVG Version: 6.00 Build 0)  -->
<svg version="1.1" id="Layer_1" xmlns="http://www.w3.org/2000/svg" xmlns:xlink="http://www.w3.org/1999/xlink" x="0px" y="0px"
	 viewBox="0 0 495 495" style="enable-background:new 0 0 495 495;" xml:space="preserve">
<g>
	<path style="fill:#005ECE;" d="M281.557,118.026H495v-40H281.557c-29.807,0-54.057,24.25-54.057,54.057v35.587h40v-35.587
		C267.5,124.333,273.806,118.026,281.557,118.026z"/>
	<path style="fill:#FFDA44;" d="M247.5,167.671H124.651C55.918,167.671,0,223.589,0,292.322s55.918,124.651,124.651,124.651
		c43.129,0,82.363-21.798,105.141-57.651H247.5V167.671z M183.077,312.322h-38.425v38.425h-40v-38.425H66.227v-40h38.425v-38.425h40
		v38.425h38.425V312.322z"/>
	<path style="fill:#FFCD00;" d="M247.5,359.322h17.708c22.777,35.854,62.011,57.651,105.141,57.651
		c68.733,0,124.651-55.918,124.651-124.651s-55.918-124.651-124.651-124.651H247.5V359.322z M370.349,232.322
		c33.084,0,60,26.916,60,60s-26.916,60-60,60s-60-26.916-60-60S337.265,232.322,370.349,232.322z"/>
	<path style="fill:#2488FF;" d="M370.349,352.322v-120c-33.084,0-60,26.916-60,60S337.265,352.322,370.349,352.322z"/>
	<path style="fill:#005ECE;" d="M430.349,292.322c0-33.084-26.916-60-60-60v120C403.433,352.322,430.349,325.406,430.349,292.322z"
		/>
	<polygon style="fill:#2488FF;" points="144.651,233.897 104.651,233.897 104.651,272.322 66.227,272.322 66.227,312.322 
		104.651,312.322 104.651,350.747 144.651,350.747 144.651,312.322 183.077,312.322 183.077,272.322 144.651,272.322 	"/>
</g>
<g>
</g>
<g>
</g>
<g>
</g>
<g>
</g>
<g>
</g>
<g>
</g>
<g>
</g>
<g>
</g>
<g>
</g>
<g>
</g>
<g>
</g>
<g>
</g>
<g>
</g>
<g>
</g>
<g>
</g>
</svg>
