<?xml version="1.0" encoding="utf-8"?>
<!-- Generator: Adobe Illustrator 26.0.0, SVG Export Plug-In . SVG Version: 6.00 Build 0)  -->
<svg version="1.1" id="Outline" xmlns="http://www.w3.org/2000/svg" xmlns:xlink="http://www.w3.org/1999/xlink" x="0px" y="0px"
	 viewBox="0 0 450 450" style="enable-background:new 0 0 450 450;" xml:space="preserve">
<path d="M203.1,302.8c-4.5,5.1-3.9,13,1.2,17.4c4.7,4,11.5,4,16.2,0l88.1-88l0,0c4.8-4.8,4.8-12.6,0-17.4l0,0l-88.1-88
	c-5.1-4.5-13-3.9-17.4,1.2c-4,4.7-4,11.5,0,16.2l67,67H31c-6.9,0-12.3,5.6-12.3,12.3c0,6.9,5.6,12.3,12.3,12.3h239.1L203.1,302.8z"
	/>
<path d="M376.6,21.9H152.5c-29.9,0-54.2,21.2-54.3,47.2v47.7c0.3,6.5,6.5,11.6,13.9,11.3c7.2-0.1,12.8-5.2,13.1-11.3V69.1
	c0-13.1,12.3-23.8,27.3-23.8h224.1c15.2,0,27.3,10.6,27.3,23.8l0,0v312c0,13.1-12.3,23.8-27.3,23.8l0,0H152.5
	c-15.2,0-27.3-10.6-27.3-23.8l0,0v-46.6c0.3-6.5-5.6-11.8-13.1-12.1c-7.4-0.2-13.6,4.9-13.9,11.3c0,0.2,0,0.5,0,0.7v46.6
	c0,26,24.3,47.2,54.3,47.2h224.2c29.9,0,54.2-21.2,54.3-47.2v-312C430.9,43.1,406.6,21.9,376.6,21.9z"/>
</svg>
