<?xml version="1.0" encoding="utf-8"?>
<!-- Generator: Adobe Illustrator 26.3.1, SVG Export Plug-In . SVG Version: 6.00 Build 0)  -->
<svg version="1.1" id="Layer_1" xmlns="http://www.w3.org/2000/svg" xmlns:xlink="http://www.w3.org/1999/xlink" x="0px" y="0px"
	 viewBox="0 0 290.6 290.6" style="enable-background:new 0 0 290.6 290.6;" xml:space="preserve">
<style type="text/css">
	.st0{fill:#444444;}
	.st1{fill:#FFC107;}
</style>
<g>
	<g>
		<path class="st0" d="M103.3,204.1c-19.5,0-35.3-15.9-35.3-35.3s15.9-35.3,35.3-35.3c12.3,0,23.4,6.2,29.9,16.5h17.5l0.5,1.2
			l0.5-1.2h18.9l0.5,1.2l0.5-1.2h18.9l0.5,1.2l0.5-1.2h17.2l14.1,18.8l-14.1,18.8h-75.3C126.8,197.9,115.6,204.1,103.3,204.1z"/>
		<path class="st1" d="M205.7,155.5h-10.6l-2.6,6.6h-3.3l-2.6-6.6h-11.2l-2.6,6.6h-3.3l-2.6-6.6h-11.2l-2.6,6.6h-3.3l-2.6-6.6h-17
			c-4.9-9.8-14.9-16.5-26.6-16.5c-16.4,0-29.7,13.3-29.7,29.7s13.3,29.7,29.7,29.7c11.7,0,21.7-6.7,26.6-16.5h75.7l9.9-13.2
			L205.7,155.5z"/>
		<path class="st0" d="M290.6,56.2c0-31-25.2-56.2-56.2-56.2H56.2C25.2,0,0,25.2,0,56.2c0,18.8,9.3,35.5,23.5,45.7
			c0,0.4-0.1,0.8-0.1,1.2v140.6c0,7.8,6.3,14.1,14.1,14.1h46.9v23.4H60.9v9.4h23.4h121.9h23.4v-9.4h-23.4v-23.4h46.9
			c7.8,0,14.1-6.3,14.1-14.1V103.1c0-0.4-0.1-0.8-0.1-1.2C281.3,91.7,290.6,75.1,290.6,56.2z M196.9,281.2H93.8v-23.4h103.1V281.2z
			 M253.1,248.4h-46.9H84.4H37.5c-2.6,0-4.7-2.1-4.7-4.7v-9.4h225v9.4C257.8,246.3,255.7,248.4,253.1,248.4z M257.8,225h-225V107.3
			c7.1,3.3,15.1,5.2,23.4,5.2h178.1c8.4,0,16.3-1.9,23.4-5.2V225z M234.4,103.1H56.2c-25.8,0-46.9-21-46.9-46.9s21-46.9,46.9-46.9
			h178.1c25.8,0,46.9,21,46.9,46.9S260.2,103.1,234.4,103.1z"/>
		<path class="st0" d="M103.1,42.2c0-15.5-12.6-28.1-28.1-28.1S46.9,26.7,46.9,42.2v4.7h-4.7v51.6h65.6V46.9h-4.7V42.2z M56.2,42.2
			c0-10.3,8.4-18.8,18.8-18.8s18.8,8.4,18.8,18.8v4.7H56.2V42.2z M98.4,89.1H51.6V56.2h46.9V89.1z"/>
		<path class="st0" d="M70.3,78.4v6h9.4v-6c2.8-1.6,4.7-4.6,4.7-8.1c0-5.2-4.2-9.4-9.4-9.4s-9.4,4.2-9.4,9.4
			C65.6,73.8,67.5,76.8,70.3,78.4z"/>
		<polygon class="st0" points="157,44.9 145.3,48.7 145.3,37.5 135.9,37.5 135.9,48.7 124.2,44.9 121.3,53.8 133,57.6 125.8,67.6 
			133.4,73.1 140.6,63.1 147.9,73.1 155.4,67.6 148.2,57.6 159.9,53.8 		"/>
		<polygon class="st0" points="203.9,44.9 192.2,48.7 192.2,37.5 182.8,37.5 182.8,48.7 171.1,44.9 168.2,53.8 179.9,57.6 
			172.7,67.6 180.3,73.1 187.5,63.1 194.7,73.1 202.3,67.6 195.1,57.6 206.8,53.8 		"/>
		<polygon class="st0" points="250.8,44.9 239.1,48.7 239.1,37.5 229.7,37.5 229.7,48.7 218,44.9 215.1,53.8 226.8,57.6 219.6,67.6 
			227.1,73.1 234.4,63.1 241.6,73.1 249.2,67.6 242,57.6 253.7,53.8 		"/>
		<path class="st0" d="M90.1,158.8c-5.5,0-9.9,4.4-9.9,9.9c0,5.5,4.4,9.9,9.9,9.9s9.9-4.4,9.9-9.9C100,163.3,95.6,158.8,90.1,158.8z
			 M90.1,172.1c-1.8,0-3.3-1.5-3.3-3.3c0-1.8,1.5-3.3,3.3-3.3s3.3,1.5,3.3,3.3C93.4,170.6,92,172.1,90.1,172.1z"/>
	</g>
</g>
</svg>
