<?xml version="1.0" encoding="utf-8"?>
<!-- Generator: Adobe Illustrator 26.3.1, SVG Export Plug-In . SVG Version: 6.00 Build 0)  -->
<svg version="1.1" id="Layer_1" xmlns="http://www.w3.org/2000/svg" xmlns:xlink="http://www.w3.org/1999/xlink" x="0px" y="0px"
	 viewBox="0 0 469.4 469.4" style="enable-background:new 0 0 469.4 469.4;" xml:space="preserve">
<g>
	<g>
		<path d="M397.3,207.8c-67.7-59.9-161.5-61.1-194.6-59.3V74.7c0-5.9-4.8-10.7-10.7-10.7c-2.5,0-4.9,0.9-6.8,2.5L3.9,215.8
			c-4.6,3.7-5.2,10.5-1.5,15c0.4,0.5,1,1,1.5,1.5l181.3,149.3c4.6,3.7,11.3,3.1,15-1.5c1.6-1.9,2.5-4.3,2.5-6.8v-77
			c34.7-8,175.1-30.5,246.6,103.4c1.8,3.5,5.4,5.7,9.4,5.7c3.4,0,6.7-1.6,8.9-4.7c1.3-1.8,1.8-4.1,1.8-6.3
			C469.3,313,445.1,250.3,397.3,207.8z M260.6,269.2c-41.1,0-70.7,8.4-71.5,8.6c-4.6,1.3-7.7,5.4-7.7,10.2v62.7L27.5,224L181.4,97.3
			V160c0,5.9,4.8,10.7,10.7,10.7c0.4,0,0.9,0,1.3-0.1c1.2-0.1,115.2-12.9,189.8,53.2c35.2,31.1,56.2,75.2,62.7,131
			C391.8,284.3,315.8,269.2,260.6,269.2z"/>
	</g>
</g>
</svg>
